<svg width="1080" height="1080" viewBox="0 0 1080 1080" fill="none" xmlns="http://www.w3.org/2000/svg">
<rect width="1080" height="1080" fill="url(#paint0_linear)"/>
<rect width="1080" height="1080" fill="url(#paint1_linear)"/>
<rect x="887.405" y="780.225" width="209.158" height="232.165" transform="rotate(90 887.405 780.225)" fill="#E9DEFF"/>
<rect x="655.239" y="780.225" width="209.158" height="230.074" transform="rotate(90 655.239 780.225)" fill="#CBB3FF"/>
<rect x="425.165" y="780.225" width="209.158" height="232.165" transform="rotate(90 425.165 780.225)" fill="#AA8DE8"/>
<path d="M562.866 716C473.02 716 398.148 685.965 338.251 625.894C278.353 565.823 248.405 491.525 248.405 403C248.405 314.475 278.353 240.177 338.251 180.106C398.148 120.035 473.02 90 562.866 90C621.187 90 673.992 103.832 721.279 131.496C769.355 159.16 806.396 196.309 832.405 242.943L664.534 340.163C643.255 301.433 608.971 282.068 561.684 282.068C528.583 282.068 500.998 293.529 478.931 316.451C456.863 338.582 445.83 367.432 445.83 403C445.83 438.568 456.863 467.813 478.931 490.735C500.998 512.866 528.583 523.932 561.684 523.932C610.548 523.932 644.831 504.172 664.534 464.652L832.405 561.871C806.396 609.295 769.355 646.84 721.279 674.504C673.992 702.168 621.187 716 562.866 716Z" fill="url(#paint2_linear)"/>
<defs>
<linearGradient id="paint0_linear" x1="540" y1="0" x2="540" y2="1080" gradientUnits="userSpaceOnUse">
<stop stop-color="#102E49"/>
<stop offset="0.682292" stop-color="#121212"/>
</linearGradient>
<linearGradient id="paint1_linear" x1="540" y1="0" x2="540" y2="1080" gradientUnits="userSpaceOnUse">
<stop stop-color="#102E49"/>
<stop offset="0.682292" stop-color="#121212"/>
</linearGradient>
<linearGradient id="paint2_linear" x1="540.405" y1="90" x2="540.405" y2="716" gradientUnits="userSpaceOnUse">
<stop offset="0.661458" stop-color="white"/>
<stop offset="1" stop-color="#CBB3FF"/>
</linearGradient>
</defs>
</svg>
