<svg width="957" height="344" viewBox="0 0 957 344" fill="none" xmlns="http://www.w3.org/2000/svg">
<circle cx="172" cy="172" r="162" fill="black" stroke="url(#paint0_linear)" stroke-width="20"/>
<path d="M194.132 123.584C207.308 123.584 218.044 128.139 226.34 137.248C234.799 146.195 239.028 159.127 239.028 176.044V249H198.524V181.168C198.524 174.824 196.816 170.025 193.4 166.772C190.147 163.519 185.755 161.892 180.224 161.892C173.88 161.892 168.919 163.844 165.34 167.748C161.924 171.489 160.216 176.939 160.216 184.096V249H119.712V78.2H160.216V139.2C167.536 128.789 178.841 123.584 194.132 123.584Z" fill="url(#paint1_linear)"/>
<path d="M435.834 227.322C430.463 232.622 423.891 235.272 416.118 235.272C408.345 235.272 401.737 232.622 396.296 227.322C390.925 221.951 388.24 215.344 388.24 207.5C388.24 199.656 390.925 193.084 396.296 187.784C401.737 182.413 408.345 179.728 416.118 179.728C423.891 179.728 430.463 182.413 435.834 187.784C441.275 193.084 443.996 199.656 443.996 207.5C443.996 215.344 441.275 221.951 435.834 227.322ZM401.278 222.446C405.306 226.474 410.253 228.488 416.118 228.488C421.983 228.488 426.93 226.474 430.958 222.446C434.986 218.347 437 213.365 437 207.5C437 201.635 434.986 196.688 430.958 192.66C426.93 188.561 421.983 186.512 416.118 186.512C410.253 186.512 405.306 188.561 401.278 192.66C397.25 196.688 395.236 201.635 395.236 207.5C395.236 213.365 397.25 218.347 401.278 222.446ZM484.111 179.728C491.673 179.728 498.103 182.413 503.403 187.784C508.774 193.155 511.459 199.727 511.459 207.5C511.459 215.273 508.774 221.845 503.403 227.216C498.103 232.587 491.673 235.272 484.111 235.272C474.713 235.272 467.575 231.385 462.699 223.612V255.2H455.703V181H462.699V191.388C467.575 183.615 474.713 179.728 484.111 179.728ZM468.741 222.446C472.769 226.474 477.716 228.488 483.581 228.488C489.447 228.488 494.393 226.474 498.421 222.446C502.449 218.347 504.463 213.365 504.463 207.5C504.463 201.635 502.449 196.688 498.421 192.66C494.393 188.561 489.447 186.512 483.581 186.512C477.716 186.512 472.769 188.561 468.741 192.66C464.713 196.688 462.699 201.635 462.699 207.5C462.699 213.365 464.713 218.347 468.741 222.446ZM547.578 179.728C555.422 179.728 561.747 182.519 566.552 188.102C571.428 193.614 573.866 200.151 573.866 207.712C573.866 208.489 573.795 209.585 573.654 210.998H527.12C527.827 216.369 530.088 220.644 533.904 223.824C537.791 226.933 542.561 228.488 548.214 228.488C552.242 228.488 555.705 227.675 558.602 226.05C561.57 224.354 563.796 222.163 565.28 219.478L571.428 223.082C569.096 226.827 565.916 229.795 561.888 231.986C557.86 234.177 553.267 235.272 548.108 235.272C539.769 235.272 532.985 232.657 527.756 227.428C522.527 222.199 519.912 215.556 519.912 207.5C519.912 199.585 522.491 192.978 527.65 187.678C532.809 182.378 539.451 179.728 547.578 179.728ZM547.578 186.512C542.066 186.512 537.437 188.173 533.692 191.494C530.017 194.745 527.827 198.985 527.12 204.214H566.658C565.951 198.631 563.796 194.285 560.192 191.176C556.588 188.067 552.383 186.512 547.578 186.512ZM609.798 179.728C616.229 179.728 621.282 181.707 624.956 185.664C628.702 189.551 630.574 194.815 630.574 201.458V234H623.578V201.458C623.578 196.723 622.306 193.049 619.762 190.434C617.289 187.819 613.756 186.512 609.162 186.512C604.074 186.512 599.94 188.137 596.76 191.388C593.58 194.568 591.99 199.515 591.99 206.228V234H584.994V181H591.99V189.268C595.948 182.908 601.884 179.728 609.798 179.728ZM649.614 194.886C649.614 197.289 650.674 199.197 652.794 200.61C654.914 202.023 657.493 203.119 660.532 203.896C663.57 204.673 666.609 205.557 669.648 206.546C672.686 207.465 675.266 209.055 677.386 211.316C679.506 213.507 680.566 216.404 680.566 220.008C680.566 224.531 678.764 228.205 675.16 231.032C671.626 233.859 667.033 235.272 661.38 235.272C656.292 235.272 651.946 234.141 648.342 231.88C644.808 229.619 642.335 226.686 640.922 223.082L646.858 219.584C647.847 222.34 649.614 224.531 652.158 226.156C654.772 227.711 657.846 228.488 661.38 228.488C664.842 228.488 667.74 227.817 670.072 226.474C672.404 225.061 673.57 222.905 673.57 220.008C673.57 217.605 672.51 215.697 670.39 214.284C668.27 212.871 665.69 211.775 662.652 210.998C659.613 210.221 656.574 209.373 653.536 208.454C650.497 207.465 647.918 205.875 645.798 203.684C643.678 201.423 642.618 198.49 642.618 194.886C642.618 190.575 644.314 186.971 647.706 184.074C651.168 181.177 655.514 179.728 660.744 179.728C665.054 179.728 668.835 180.717 672.086 182.696C675.336 184.604 677.739 187.219 679.294 190.54L673.464 193.932C671.414 188.985 667.174 186.512 660.744 186.512C657.705 186.512 655.09 187.254 652.9 188.738C650.709 190.151 649.614 192.201 649.614 194.886ZM735.098 227.322C729.727 232.622 723.155 235.272 715.382 235.272C707.608 235.272 701.001 232.622 695.56 227.322C690.189 221.951 687.504 215.344 687.504 207.5C687.504 199.656 690.189 193.084 695.56 187.784C701.001 182.413 707.608 179.728 715.382 179.728C723.155 179.728 729.727 182.413 735.098 187.784C740.539 193.084 743.26 199.656 743.26 207.5C743.26 215.344 740.539 221.951 735.098 227.322ZM700.542 222.446C704.57 226.474 709.516 228.488 715.382 228.488C721.247 228.488 726.194 226.474 730.222 222.446C734.25 218.347 736.264 213.365 736.264 207.5C736.264 201.635 734.25 196.688 730.222 192.66C726.194 188.561 721.247 186.512 715.382 186.512C709.516 186.512 704.57 188.561 700.542 192.66C696.514 196.688 694.5 201.635 694.5 207.5C694.5 213.365 696.514 218.347 700.542 222.446ZM792.279 181H799.275V234H792.279V225.732C788.322 232.092 782.386 235.272 774.471 235.272C768.04 235.272 762.952 233.329 759.207 229.442C755.532 225.485 753.695 220.185 753.695 213.542V181H760.691V213.542C760.691 218.277 761.928 221.951 764.401 224.566C766.945 227.181 770.514 228.488 775.107 228.488C780.195 228.488 784.329 226.898 787.509 223.718C790.689 220.467 792.279 215.485 792.279 208.772V181ZM821.07 189.798C824.321 183.367 829.904 180.152 837.818 180.152V186.936C833.013 186.936 829.02 188.349 825.84 191.176C822.66 194.003 821.07 198.455 821.07 204.532V234H814.074V181H821.07V189.798ZM868.895 235.272C860.91 235.272 854.267 232.622 848.967 227.322C843.667 221.951 841.017 215.344 841.017 207.5C841.017 199.656 843.667 193.084 848.967 187.784C854.267 182.413 860.91 179.728 868.895 179.728C874.125 179.728 878.824 181 882.993 183.544C887.163 186.017 890.201 189.374 892.109 193.614L886.385 196.9C884.972 193.72 882.675 191.211 879.495 189.374C876.386 187.466 872.853 186.512 868.895 186.512C863.03 186.512 858.083 188.561 854.055 192.66C850.027 196.688 848.013 201.635 848.013 207.5C848.013 213.365 850.027 218.347 854.055 222.446C858.083 226.474 863.03 228.488 868.895 228.488C872.853 228.488 876.386 227.569 879.495 225.732C882.605 223.824 885.043 221.28 886.809 218.1L892.639 221.492C890.449 225.732 887.233 229.089 882.993 231.562C878.753 234.035 874.054 235.272 868.895 235.272ZM926.652 179.728C934.496 179.728 940.821 182.519 945.626 188.102C950.502 193.614 952.94 200.151 952.94 207.712C952.94 208.489 952.869 209.585 952.728 210.998H906.194C906.901 216.369 909.162 220.644 912.978 223.824C916.865 226.933 921.635 228.488 927.288 228.488C931.316 228.488 934.779 227.675 937.676 226.05C940.644 224.354 942.87 222.163 944.354 219.478L950.502 223.082C948.17 226.827 944.99 229.795 940.962 231.986C936.934 234.177 932.341 235.272 927.182 235.272C918.843 235.272 912.059 232.657 906.83 227.428C901.601 222.199 898.986 215.556 898.986 207.5C898.986 199.585 901.565 192.978 906.724 187.678C911.883 182.378 918.525 179.728 926.652 179.728ZM926.652 186.512C921.14 186.512 916.511 188.173 912.766 191.494C909.091 194.745 906.901 198.985 906.194 204.214H945.732C945.025 198.631 942.87 194.285 939.266 191.176C935.662 188.067 931.457 186.512 926.652 186.512Z" fill="white"/>
<path d="M421.418 114.516C427.142 114.516 431.806 116.495 435.41 120.452C439.085 124.339 440.922 129.957 440.922 137.306V169H423.326V139.532C423.326 136.776 422.584 134.691 421.1 133.278C419.687 131.865 417.779 131.158 415.376 131.158C412.62 131.158 410.465 132.006 408.91 133.702C407.426 135.327 406.684 137.695 406.684 140.804V169H389.088V94.8H406.684V121.3C409.864 116.777 414.775 114.516 421.418 114.516ZM487.787 116H505.383V169H487.787V164.124C484.183 168.364 479.166 170.484 472.735 170.484C465.669 170.484 459.733 167.834 454.927 162.534C450.193 157.163 447.825 150.485 447.825 142.5C447.825 134.515 450.193 127.872 454.927 122.572C459.733 117.201 465.669 114.516 472.735 114.516C479.166 114.516 484.183 116.636 487.787 120.876V116ZM468.601 150.874C470.651 152.994 473.336 154.054 476.657 154.054C479.979 154.054 482.664 152.994 484.713 150.874C486.763 148.754 487.787 145.963 487.787 142.5C487.787 139.037 486.763 136.246 484.713 134.126C482.664 132.006 479.979 130.946 476.657 130.946C473.336 130.946 470.651 132.006 468.601 134.126C466.552 136.246 465.527 139.037 465.527 142.5C465.527 145.963 466.552 148.754 468.601 150.874ZM541.133 170.484C533.077 170.484 526.363 167.799 520.993 162.428C515.622 157.057 512.937 150.415 512.937 142.5C512.937 134.585 515.622 127.943 520.993 122.572C526.363 117.201 533.077 114.516 541.133 114.516C546.362 114.516 551.097 115.753 555.337 118.226C559.647 120.699 562.969 124.021 565.301 128.19L550.249 136.882C548.341 133.419 545.267 131.688 541.027 131.688C538.059 131.688 535.585 132.713 533.607 134.762C531.628 136.741 530.639 139.32 530.639 142.5C530.639 145.68 531.628 148.295 533.607 150.344C535.585 152.323 538.059 153.312 541.027 153.312C545.408 153.312 548.482 151.545 550.249 148.012L565.301 156.704C562.969 160.944 559.647 164.301 555.337 166.774C551.097 169.247 546.362 170.484 541.133 170.484ZM623.329 169H603.613L588.561 146.422V169H570.965V94.8H588.561V138.154L602.235 116H622.587L604.779 142.5L623.329 169ZM662.418 94.8H680.014V169H662.418V164.124C658.814 168.364 653.797 170.484 647.366 170.484C640.299 170.484 634.363 167.834 629.558 162.534C624.823 157.163 622.456 150.485 622.456 142.5C622.456 134.515 624.823 127.872 629.558 122.572C634.363 117.201 640.299 114.516 647.366 114.516C653.797 114.516 658.814 116.636 662.418 120.876V94.8ZM643.232 150.874C645.281 152.994 647.967 154.054 651.288 154.054C654.609 154.054 657.295 152.994 659.344 150.874C661.393 148.754 662.418 145.963 662.418 142.5C662.418 139.037 661.393 136.246 659.344 134.126C657.295 132.006 654.609 130.946 651.288 130.946C647.967 130.946 645.281 132.006 643.232 134.126C641.183 136.246 640.158 139.037 640.158 142.5C640.158 145.963 641.183 148.754 643.232 150.874ZM715.869 170.484C708.025 170.484 701.347 167.799 695.835 162.428C690.323 156.987 687.567 150.344 687.567 142.5C687.567 134.656 690.323 128.049 695.835 122.678C701.347 117.237 708.025 114.516 715.869 114.516C723.784 114.516 730.462 117.237 735.903 122.678C741.415 128.049 744.171 134.656 744.171 142.5C744.171 150.344 741.415 156.987 735.903 162.428C730.462 167.799 723.784 170.484 715.869 170.484ZM715.869 153.524C718.979 153.524 721.523 152.499 723.501 150.45C725.551 148.401 726.575 145.751 726.575 142.5C726.575 139.249 725.551 136.599 723.501 134.55C721.523 132.501 718.979 131.476 715.869 131.476C712.831 131.476 710.287 132.501 708.237 134.55C706.259 136.599 705.269 139.249 705.269 142.5C705.269 145.751 706.259 148.401 708.237 150.45C710.287 152.499 712.831 153.524 715.869 153.524ZM777.668 170.484C769.824 170.484 763.146 167.799 757.634 162.428C752.122 156.987 749.366 150.344 749.366 142.5C749.366 134.656 752.122 128.049 757.634 122.678C763.146 117.237 769.824 114.516 777.668 114.516C785.583 114.516 792.261 117.237 797.702 122.678C803.214 128.049 805.97 134.656 805.97 142.5C805.97 150.344 803.214 156.987 797.702 162.428C792.261 167.799 785.583 170.484 777.668 170.484ZM777.668 153.524C780.778 153.524 783.322 152.499 785.3 150.45C787.35 148.401 788.374 145.751 788.374 142.5C788.374 139.249 787.35 136.599 785.3 134.55C783.322 132.501 780.778 131.476 777.668 131.476C774.63 131.476 772.086 132.501 770.036 134.55C768.058 136.599 767.068 139.249 767.068 142.5C767.068 145.751 768.058 148.401 770.036 150.45C772.086 152.499 774.63 153.524 777.668 153.524ZM831.305 125.858C832.294 122.395 834.273 119.71 837.241 117.802C840.209 115.894 843.53 114.94 847.205 114.94V134.444C843.177 133.808 839.502 134.55 836.181 136.67C832.93 138.79 831.305 142.253 831.305 147.058V169H813.709V116H831.305V125.858Z" fill="white"/>
<defs>
<linearGradient id="paint0_linear" x1="172" y1="0" x2="172" y2="344" gradientUnits="userSpaceOnUse">
<stop stop-color="#00D1FF"/>
<stop offset="1" stop-color="#D000A0"/>
</linearGradient>
<linearGradient id="paint1_linear" x1="179" y1="182" x2="179" y2="298" gradientUnits="userSpaceOnUse">
<stop stop-color="white"/>
<stop offset="1" stop-color="#FF72DE"/>
</linearGradient>
</defs>
</svg>
