<svg width="1080" height="1080" viewBox="0 0 1080 1080" fill="none" xmlns="http://www.w3.org/2000/svg"><path fill="url(#paint0_linear)" d="M0 0h1080v1080H0z"/><path fill="url(#paint1_linear)" d="M0 0h1080v1080H0z"/><path fill="#E9DEFF" d="M887.405 780.225v209.158H655.24V780.225z"/><path fill="#CBB3FF" d="M655.239 780.225v209.158H425.165V780.225z"/><path fill="#AA8DE8" d="M425.165 780.225v209.158H193V780.225z"/><path d="M562.866 716c-89.846 0-164.718-30.035-224.615-90.106-59.898-60.071-89.846-134.369-89.846-222.894s29.948-162.823 89.846-222.894C398.148 120.035 473.02 90 562.866 90c58.321 0 111.126 13.832 158.413 41.496 48.076 27.664 85.117 64.813 111.126 111.447l-167.871 97.22c-21.279-38.73-55.563-58.095-102.85-58.095-33.101 0-60.686 11.461-82.753 34.383-22.068 22.131-33.101 50.981-33.101 86.549 0 35.568 11.033 64.813 33.101 87.735 22.067 22.131 49.652 33.197 82.753 33.197 48.864 0 83.147-19.76 102.85-59.28l167.871 97.219c-26.009 47.424-63.05 84.969-111.126 112.633C673.992 702.168 621.187 716 562.866 716z" fill="url(#paint2_linear)"/><defs><linearGradient id="paint0_linear" x1="540" y1="0" x2="540" y2="1080" gradientUnits="userSpaceOnUse"><stop stop-color="#102E49"/><stop offset=".682" stop-color="#121212"/></linearGradient><linearGradient id="paint1_linear" x1="540" y1="0" x2="540" y2="1080" gradientUnits="userSpaceOnUse"><stop stop-color="#102E49"/><stop offset=".682" stop-color="#121212"/></linearGradient><linearGradient id="paint2_linear" x1="540.405" y1="90" x2="540.405" y2="716" gradientUnits="userSpaceOnUse"><stop offset=".661" stop-color="#fff"/><stop offset="1" stop-color="#CBB3FF"/></linearGradient></defs></svg>