<svg width="957" height="344" viewBox="0 0 957 344" fill="none" xmlns="http://www.w3.org/2000/svg"><circle cx="172" cy="172" r="162" fill="#000" stroke="url(#paint0_linear)" stroke-width="20"/><path d="M194.132 123.584c13.176 0 23.912 4.555 32.208 13.664 8.459 8.947 12.688 21.879 12.688 38.796V249h-40.504v-67.832c0-6.344-1.708-11.143-5.124-14.396-3.253-3.253-7.645-4.88-13.176-4.88-6.344 0-11.305 1.952-14.884 5.856-3.416 3.741-5.124 9.191-5.124 16.348V249h-40.504V78.2h40.504v61c7.32-10.411 18.625-15.616 33.916-15.616z" fill="url(#paint1_linear)"/><path d="M435.834 227.322c-5.371 5.3-11.943 7.95-19.716 7.95-7.773 0-14.381-2.65-19.822-7.95-5.371-5.371-8.056-11.978-8.056-19.822 0-7.844 2.685-14.416 8.056-19.716 5.441-5.371 12.049-8.056 19.822-8.056s14.345 2.685 19.716 8.056c5.441 5.3 8.162 11.872 8.162 19.716 0 7.844-2.721 14.451-8.162 19.822zm-34.556-4.876c4.028 4.028 8.975 6.042 14.84 6.042s10.812-2.014 14.84-6.042c4.028-4.099 6.042-9.081 6.042-14.946s-2.014-10.812-6.042-14.84c-4.028-4.099-8.975-6.148-14.84-6.148s-10.812 2.049-14.84 6.148c-4.028 4.028-6.042 8.975-6.042 14.84s2.014 10.847 6.042 14.946zm82.833-42.718c7.562 0 13.992 2.685 19.292 8.056 5.371 5.371 8.056 11.943 8.056 19.716 0 7.773-2.685 14.345-8.056 19.716-5.3 5.371-11.73 8.056-19.292 8.056-9.398 0-16.536-3.887-21.412-11.66V255.2h-6.996V181h6.996v10.388c4.876-7.773 12.014-11.66 21.412-11.66zm-15.37 42.718c4.028 4.028 8.975 6.042 14.84 6.042 5.866 0 10.812-2.014 14.84-6.042 4.028-4.099 6.042-9.081 6.042-14.946s-2.014-10.812-6.042-14.84c-4.028-4.099-8.974-6.148-14.84-6.148-5.865 0-10.812 2.049-14.84 6.148-4.028 4.028-6.042 8.975-6.042 14.84s2.014 10.847 6.042 14.946zm78.837-42.718c7.844 0 14.169 2.791 18.974 8.374 4.876 5.512 7.314 12.049 7.314 19.61 0 .777-.071 1.873-.212 3.286H527.12c.707 5.371 2.968 9.646 6.784 12.826 3.887 3.109 8.657 4.664 14.31 4.664 4.028 0 7.491-.813 10.388-2.438 2.968-1.696 5.194-3.887 6.678-6.572l6.148 3.604c-2.332 3.745-5.512 6.713-9.54 8.904s-8.621 3.286-13.78 3.286c-8.339 0-15.123-2.615-20.352-7.844-5.229-5.229-7.844-11.872-7.844-19.928 0-7.915 2.579-14.522 7.738-19.822 5.159-5.3 11.801-7.95 19.928-7.95zm0 6.784c-5.512 0-10.141 1.661-13.886 4.982-3.675 3.251-5.865 7.491-6.572 12.72h39.538c-.707-5.583-2.862-9.929-6.466-13.038s-7.809-4.664-12.614-4.664zm62.22-6.784c6.431 0 11.484 1.979 15.158 5.936 3.746 3.887 5.618 9.151 5.618 15.794V234h-6.996v-32.542c0-4.735-1.272-8.409-3.816-11.024-2.473-2.615-6.006-3.922-10.6-3.922-5.088 0-9.222 1.625-12.402 4.876-3.18 3.18-4.77 8.127-4.77 14.84V234h-6.996v-53h6.996v8.268c3.958-6.36 9.894-9.54 17.808-9.54zm39.816 15.158c0 2.403 1.06 4.311 3.18 5.724 2.12 1.413 4.699 2.509 7.738 3.286 3.038.777 6.077 1.661 9.116 2.65 3.038.919 5.618 2.509 7.738 4.77 2.12 2.191 3.18 5.088 3.18 8.692 0 4.523-1.802 8.197-5.406 11.024-3.534 2.827-8.127 4.24-13.78 4.24-5.088 0-9.434-1.131-13.038-3.392-3.534-2.261-6.007-5.194-7.42-8.798l5.936-3.498c.989 2.756 2.756 4.947 5.3 6.572 2.614 1.555 5.688 2.332 9.222 2.332 3.462 0 6.36-.671 8.692-2.014 2.332-1.413 3.498-3.569 3.498-6.466 0-2.403-1.06-4.311-3.18-5.724-2.12-1.413-4.7-2.509-7.738-3.286a217.896 217.896 0 01-9.116-2.544c-3.039-.989-5.618-2.579-7.738-4.77-2.12-2.261-3.18-5.194-3.18-8.798 0-4.311 1.696-7.915 5.088-10.812 3.462-2.897 7.808-4.346 13.038-4.346 4.31 0 8.091.989 11.342 2.968 3.25 1.908 5.653 4.523 7.208 7.844l-5.83 3.392c-2.05-4.947-6.29-7.42-12.72-7.42-3.039 0-5.654.742-7.844 2.226-2.191 1.413-3.286 3.463-3.286 6.148zm85.484 32.436c-5.371 5.3-11.943 7.95-19.716 7.95-7.774 0-14.381-2.65-19.822-7.95-5.371-5.371-8.056-11.978-8.056-19.822 0-7.844 2.685-14.416 8.056-19.716 5.441-5.371 12.048-8.056 19.822-8.056 7.773 0 14.345 2.685 19.716 8.056 5.441 5.3 8.162 11.872 8.162 19.716 0 7.844-2.721 14.451-8.162 19.822zm-34.556-4.876c4.028 4.028 8.974 6.042 14.84 6.042 5.865 0 10.812-2.014 14.84-6.042 4.028-4.099 6.042-9.081 6.042-14.946s-2.014-10.812-6.042-14.84c-4.028-4.099-8.975-6.148-14.84-6.148-5.866 0-10.812 2.049-14.84 6.148-4.028 4.028-6.042 8.975-6.042 14.84s2.014 10.847 6.042 14.946zM792.279 181h6.996v53h-6.996v-8.268c-3.957 6.36-9.893 9.54-17.808 9.54-6.431 0-11.519-1.943-15.264-5.83-3.675-3.957-5.512-9.257-5.512-15.9V181h6.996v32.542c0 4.735 1.237 8.409 3.71 11.024 2.544 2.615 6.113 3.922 10.706 3.922 5.088 0 9.222-1.59 12.402-4.77 3.18-3.251 4.77-8.233 4.77-14.946V181zm28.791 8.798c3.251-6.431 8.834-9.646 16.748-9.646v6.784c-4.805 0-8.798 1.413-11.978 4.24-3.18 2.827-4.77 7.279-4.77 13.356V234h-6.996v-53h6.996v8.798zm47.825 45.474c-7.985 0-14.628-2.65-19.928-7.95-5.3-5.371-7.95-11.978-7.95-19.822 0-7.844 2.65-14.416 7.95-19.716 5.3-5.371 11.943-8.056 19.928-8.056 5.23 0 9.929 1.272 14.098 3.816 4.17 2.473 7.208 5.83 9.116 10.07l-5.724 3.286c-1.413-3.18-3.71-5.689-6.89-7.526-3.109-1.908-6.642-2.862-10.6-2.862-5.865 0-10.812 2.049-14.84 6.148-4.028 4.028-6.042 8.975-6.042 14.84s2.014 10.847 6.042 14.946c4.028 4.028 8.975 6.042 14.84 6.042 3.958 0 7.491-.919 10.6-2.756 3.11-1.908 5.548-4.452 7.314-7.632l5.83 3.392c-2.19 4.24-5.406 7.597-9.646 10.07-4.24 2.473-8.939 3.71-14.098 3.71zm57.757-55.544c7.844 0 14.169 2.791 18.974 8.374 4.876 5.512 7.314 12.049 7.314 19.61 0 .777-.071 1.873-.212 3.286h-46.534c.707 5.371 2.968 9.646 6.784 12.826 3.887 3.109 8.657 4.664 14.31 4.664 4.028 0 7.491-.813 10.388-2.438 2.968-1.696 5.194-3.887 6.678-6.572l6.148 3.604c-2.332 3.745-5.512 6.713-9.54 8.904s-8.621 3.286-13.78 3.286c-8.339 0-15.123-2.615-20.352-7.844-5.229-5.229-7.844-11.872-7.844-19.928 0-7.915 2.579-14.522 7.738-19.822 5.159-5.3 11.801-7.95 19.928-7.95zm0 6.784c-5.512 0-10.141 1.661-13.886 4.982-3.675 3.251-5.865 7.491-6.572 12.72h39.538c-.707-5.583-2.862-9.929-6.466-13.038s-7.809-4.664-12.614-4.664zm-505.234-71.996c5.724 0 10.388 1.979 13.992 5.936 3.675 3.887 5.512 9.505 5.512 16.854V169h-17.596v-29.468c0-2.756-.742-4.841-2.226-6.254-1.413-1.413-3.321-2.12-5.724-2.12-2.756 0-4.911.848-6.466 2.544-1.484 1.625-2.226 3.993-2.226 7.102V169h-17.596V94.8h17.596v26.5c3.18-4.523 8.091-6.784 14.734-6.784zM487.787 116h17.596v53h-17.596v-4.876c-3.604 4.24-8.621 6.36-15.052 6.36-7.066 0-13.002-2.65-17.808-7.95-4.734-5.371-7.102-12.049-7.102-20.034 0-7.985 2.368-14.628 7.102-19.928 4.806-5.371 10.742-8.056 17.808-8.056 6.431 0 11.448 2.12 15.052 6.36V116zm-19.186 34.874c2.05 2.12 4.735 3.18 8.056 3.18 3.322 0 6.007-1.06 8.056-3.18 2.05-2.12 3.074-4.911 3.074-8.374 0-3.463-1.024-6.254-3.074-8.374-2.049-2.12-4.734-3.18-8.056-3.18-3.321 0-6.006 1.06-8.056 3.18-2.049 2.12-3.074 4.911-3.074 8.374 0 3.463 1.025 6.254 3.074 8.374zm72.532 19.61c-8.056 0-14.77-2.685-20.14-8.056-5.371-5.371-8.056-12.013-8.056-19.928 0-7.915 2.685-14.557 8.056-19.928 5.37-5.371 12.084-8.056 20.14-8.056 5.229 0 9.964 1.237 14.204 3.71 4.31 2.473 7.632 5.795 9.964 9.964l-15.052 8.692c-1.908-3.463-4.982-5.194-9.222-5.194-2.968 0-5.442 1.025-7.42 3.074-1.979 1.979-2.968 4.558-2.968 7.738 0 3.18.989 5.795 2.968 7.844 1.978 1.979 4.452 2.968 7.42 2.968 4.381 0 7.455-1.767 9.222-5.3l15.052 8.692c-2.332 4.24-5.654 7.597-9.964 10.07-4.24 2.473-8.975 3.71-14.204 3.71zM623.329 169h-19.716l-15.052-22.578V169h-17.596V94.8h17.596v43.354L602.235 116h20.352l-17.808 26.5 18.55 26.5zm39.089-74.2h17.596V169h-17.596v-4.876c-3.604 4.24-8.621 6.36-15.052 6.36-7.067 0-13.003-2.65-17.808-7.95-4.735-5.371-7.102-12.049-7.102-20.034 0-7.985 2.367-14.628 7.102-19.928 4.805-5.371 10.741-8.056 17.808-8.056 6.431 0 11.448 2.12 15.052 6.36V94.8zm-19.186 56.074c2.049 2.12 4.735 3.18 8.056 3.18 3.321 0 6.007-1.06 8.056-3.18 2.049-2.12 3.074-4.911 3.074-8.374 0-3.463-1.025-6.254-3.074-8.374-2.049-2.12-4.735-3.18-8.056-3.18-3.321 0-6.007 1.06-8.056 3.18-2.049 2.12-3.074 4.911-3.074 8.374 0 3.463 1.025 6.254 3.074 8.374zm72.637 19.61c-7.844 0-14.522-2.685-20.034-8.056-5.512-5.441-8.268-12.084-8.268-19.928 0-7.844 2.756-14.451 8.268-19.822 5.512-5.441 12.19-8.162 20.034-8.162 7.915 0 14.593 2.721 20.034 8.162 5.512 5.371 8.268 11.978 8.268 19.822 0 7.844-2.756 14.487-8.268 19.928-5.441 5.371-12.119 8.056-20.034 8.056zm0-16.96c3.11 0 5.654-1.025 7.632-3.074 2.05-2.049 3.074-4.699 3.074-7.95 0-3.251-1.024-5.901-3.074-7.95-1.978-2.049-4.522-3.074-7.632-3.074-3.038 0-5.582 1.025-7.632 3.074-1.978 2.049-2.968 4.699-2.968 7.95 0 3.251.99 5.901 2.968 7.95 2.05 2.049 4.594 3.074 7.632 3.074zm61.799 16.96c-7.844 0-14.522-2.685-20.034-8.056-5.512-5.441-8.268-12.084-8.268-19.928 0-7.844 2.756-14.451 8.268-19.822 5.512-5.441 12.19-8.162 20.034-8.162 7.915 0 14.593 2.721 20.034 8.162 5.512 5.371 8.268 11.978 8.268 19.822 0 7.844-2.756 14.487-8.268 19.928-5.441 5.371-12.119 8.056-20.034 8.056zm0-16.96c3.11 0 5.654-1.025 7.632-3.074 2.05-2.049 3.074-4.699 3.074-7.95 0-3.251-1.024-5.901-3.074-7.95-1.978-2.049-4.522-3.074-7.632-3.074-3.038 0-5.582 1.025-7.632 3.074-1.978 2.049-2.968 4.699-2.968 7.95 0 3.251.99 5.901 2.968 7.95 2.05 2.049 4.594 3.074 7.632 3.074zm53.637-27.666c.989-3.463 2.968-6.148 5.936-8.056 2.968-1.908 6.289-2.862 9.964-2.862v19.504c-4.028-.636-7.703.106-11.024 2.226-3.251 2.12-4.876 5.583-4.876 10.388V169h-17.596v-53h17.596v9.858z" fill="#fff"/><defs><linearGradient id="paint0_linear" x1="172" y1="0" x2="172" y2="344" gradientUnits="userSpaceOnUse"><stop stop-color="#00D1FF"/><stop offset="1" stop-color="#D000A0"/></linearGradient><linearGradient id="paint1_linear" x1="179" y1="182" x2="179" y2="298" gradientUnits="userSpaceOnUse"><stop stop-color="#fff"/><stop offset="1" stop-color="#FF72DE"/></linearGradient></defs></svg>